<?xml version="1.0" encoding="UTF-8" standalone="no"?>
<svg
   xmlns:dc="http://purl.org/dc/elements/1.1/"
   xmlns:cc="http://creativecommons.org/ns#"
   xmlns:rdf="http://www.w3.org/1999/02/22-rdf-syntax-ns#"
   xmlns:svg="http://www.w3.org/2000/svg"
   xmlns="http://www.w3.org/2000/svg"
   xmlns:sodipodi="http://sodipodi.sourceforge.net/DTD/sodipodi-0.dtd"
   xmlns:inkscape="http://www.inkscape.org/namespaces/inkscape"
   width="82.70562"
   height="82.703354"
   viewBox="0 0 82.70562 82.703354"
   version="1.1"
   id="svg1001"
   sodipodi:docname="logo.svg"
   style="fill:none"
   inkscape:version="0.92.3 (2405546, 2018-03-11)">
  <metadata
     id="metadata1007">
    <rdf:RDF>
      <cc:Work
         rdf:about="">
        <dc:format>image/svg+xml</dc:format>
        <dc:type
           rdf:resource="http://purl.org/dc/dcmitype/StillImage" />
        <dc:title></dc:title>
      </cc:Work>
    </rdf:RDF>
  </metadata>
  <defs
     id="defs1005" />
  <sodipodi:namedview
     pagecolor="#ffffff"
     bordercolor="#666666"
     borderopacity="1"
     objecttolerance="10"
     gridtolerance="10"
     guidetolerance="10"
     inkscape:pageopacity="0"
     inkscape:pageshadow="2"
     inkscape:window-width="1504"
     inkscape:window-height="853"
     id="namedview1003"
     showgrid="false"
     fit-margin-top="0"
     fit-margin-left="0"
     fit-margin-right="0"
     fit-margin-bottom="0"
     inkscape:zoom="1.7752894"
     inkscape:cx="-30.216199"
     inkscape:cy="14.730571"
     inkscape:window-x="212"
     inkscape:window-y="134"
     inkscape:window-maximized="0"
     inkscape:current-layer="g868" />
  <g
     id="g868"
     transform="matrix(0.6311089,0,0,0.6311089,-24.918123,-12.983833)">
    <path
       inkscape:connector-curvature="0"
       id="path857"
       d="m 141.08824,23.51741 c -2.82466,-1.585162 -6.42912,-1.67631 -9.28306,0.208902 -4.60115,3.039365 -5.44631,9.188251 -1.846,13.428251 0.38598,0.454561 1.46894,1.275007 2.40643,1.82435 1.38232,0.809514 2.05816,1.027161 3.57254,1.15024 5.48286,0.445616 9.91553,-3.868179 9.62928,-9.371355 -0.0496,-0.953979 -0.30501,-2.248898 -0.56746,-2.877361 -0.80307,-1.923022 -2.21693,-3.411927 -3.91173,-4.363027 z m -2.1689,3.849641 c 1.36384,0.801428 2.33113,2.292703 2.23818,4.08361 -0.12207,2.352006 -2.25656,4.424483 -4.45229,4.322643 -3.58928,-0.166475 -5.6844,-3.778307 -3.94211,-6.796043 0.2824,-0.489139 0.97541,-1.188628 1.53962,-1.554619 1.49276,-0.968345 3.25277,-0.857017 4.6166,-0.05559 z m 11.35547,11.581556 c -0.46354,-0.246434 -0.86267,-0.284768 -1.34326,-0.208661 -0.59987,0.09499 -0.97528,0.384927 -1.35905,1.049636 -0.68717,1.190205 -0.37124,2.017145 1.52359,3.989089 9.8456,10.246295 15.97548,24.230746 16.87109,38.491115 0.36775,5.855728 -0.2452,12.996892 -1.5518,18.081174 -0.58226,2.26572 -0.61566,3.36449 -0.12148,4.00657 0.91459,1.18835 2.84895,1.10333 3.57668,-0.15714 0.926,-1.60388 2.23969,-9.112429 2.55443,-14.600514 1.02067,-17.797189 -5.34995,-35.214516 -17.7294,-48.472526 -1.12194,-1.201564 -1.82484,-1.861905 -2.4208,-2.178743 z m -27.06796,-15.613376 c -0.74423,-0.468178 -2.09984,-0.820457 -4.80709,-1.372513 -18.39872,-3.751856 -36.723143,0.148325 -51.837854,11.033019 -2.722126,1.960309 -8.07626,6.664918 -8.582241,7.541303 -0.494989,0.857347 -0.495747,1.798319 -0.0022,2.439854 0.520136,0.67612 1.599583,1.032015 2.404229,0.792567 0.345569,-0.102844 2.065766,-1.489573 3.822828,-3.081513 14.378229,-13.02707 34.464149,-18.408701 53.429588,-14.316047 2.31763,0.500125 4.54398,0.832187 4.94772,0.738252 1.06135,-0.246928 1.85219,-1.726719 1.46368,-2.738771 -0.16604,-0.432524 -0.39212,-0.755245 -0.83865,-1.036151 z m 40.91282,86.551649 c -2.88392,-1.59187 -6.54576,-1.49361 -9.51539,0.65059 -1.37428,0.99231 -1.6498,1.32966 -2.57481,3.15642 -1.87048,3.69386 -1.34661,7.45983 1.44123,10.36391 0.53342,0.5556 1.60336,1.29027 2.55692,1.75489 7.60069,3.70357 15.62374,-4.53246 11.77208,-12.08441 -0.87225,-1.71025 -2.1694,-3.00756 -3.68003,-3.8414 z m -109.576551,-63.258048 c -4.039451,-2.27196 -9.511866,-1.16211 -12.113579,3.344188 -1.990475,3.447604 -1.464942,7.851327 1.276654,10.702697 1.208847,1.257255 3.73668,2.494063 5.4821,2.681759 2.045063,0.219927 4.45704,-0.445158 6.213338,-1.713284 1.374272,-0.992309 1.649337,-1.329935 2.574359,-3.156681 1.503613,-2.969374 1.493275,-5.81422 -0.03072,-8.459962 -0.868766,-1.508212 -2.055657,-2.641392 -3.40215,-3.398717 z m 107.580991,67.232268 c 2.03635,1.19051 2.90086,3.86494 1.5938,6.12884 -0.87388,1.5136 -2.34873,2.34551 -4.00641,2.25948 -1.47515,-0.0765 -2.86496,-0.84182 -3.64276,-2.00529 -2.04191,-3.0544 0.43509,-7.28753 4.09136,-6.99245 0.73191,0.0591 1.3938,0.27606 1.96398,0.6094 z m -109.70971,-63.291998 c 0.812549,0.471204 1.492459,1.168048 1.858702,1.969976 1.252199,2.742299 -0.696445,6.107309 -3.7024,6.394745 -1.521902,0.145069 -3.47774,-0.844579 -4.288955,-2.170715 -1.849597,-3.023617 0.534486,-7.010891 4.081671,-6.826782 0.707074,0.03669 1.419266,0.26642 2.051242,0.632926 z m 98.94869,78.110698 c -0.50775,-0.31578 -1.12485,-0.45841 -1.64616,-0.30001 -0.39661,0.12052 -2.15892,1.52173 -3.91598,3.11366 -14.37824,13.02707 -34.46372,18.40896 -53.429172,14.31629 -2.317629,-0.50013 -4.544436,-0.83245 -4.948175,-0.73851 -1.061348,0.24693 -1.852191,1.72671 -1.463679,2.73876 0.442775,1.1534 1.314834,1.52519 5.646451,2.40848 20.777455,4.23693 41.186915,-1.23138 57.062245,-15.28939 3.30965,-2.93076 3.87898,-3.68876 3.68574,-4.90902 -0.0848,-0.53536 -0.48351,-1.02447 -0.99127,-1.34026 z m -106.377871,-61.402377 c -0.66471,-0.383771 -1.134799,-0.447152 -1.701791,-0.229493 -1.038288,0.398587 -1.406342,1.102634 -2.065625,3.949847 -4.085956,17.645778 -0.885996,35.968693 8.882004,50.860923 2.227252,3.39566 3.60849,5.17883 6.649063,8.58147 1.088845,1.2185 2.321178,2.42164 2.738125,2.67402 1.125769,0.68138 2.301854,0.39318 2.945669,-0.72194 0.68717,-1.19022 0.371231,-2.01716 -1.523587,-3.98909 -14.34835,-14.93231 -20.208231,-36.803099 -15.248339,-56.909038 0.654991,-2.655158 0.514691,-3.529531 -0.675519,-4.216699 z m 32.012176,65.557727 c -0.91698,-0.52365 -1.462054,-0.64319 -2.726791,-0.77234 -5.552578,-0.56703 -10.122534,3.78404 -9.83243,9.36148 0.105709,2.03226 0.692128,3.57968 1.954889,5.15822 0.527099,0.65892 1.545862,1.51101 2.421415,2.02575 6.025477,3.53955 13.474275,-0.75071 13.467308,-7.75696 -0.0031,-3.05328 -1.416518,-5.52216 -4.203386,-7.34191 -0.428602,-0.2799 -0.775387,-0.49963 -1.08101,-0.67423 z m -1.437343,4.25171 c 2.112704,1.21977 2.84663,3.50543 1.836359,5.72111 -0.694133,1.52232 -2.260923,2.60898 -3.799051,2.63517 -3.888681,0.0662 -6.122482,-3.98225 -3.909675,-7.0858 1.4137,-1.98276 3.759655,-2.49026 5.872367,-1.27048 z"
       style="fill:#6e84a3;fill-opacity:1;stroke-width:0.28222221" />
    <path
       inkscape:connector-curvature="0"
       id="path881"
       d="m 90.113762,128.33896 -13.852948,-6.01995 v -30.7465 -30.746496 l 0.4025,-0.75837 c 0.582464,-1.09745 1.938447,-2.22735 3.071293,-2.55924 0.621167,-0.18212 1.514674,-0.26101 2.562416,-0.22595 l 1.608707,0.0535 13.49372,18.669946 13.49374,18.6699 6.86532,4.154949 c 3.77592,2.285231 6.95433,4.154921 7.06315,4.154921 0.22818,0 0.28612,-47.719156 0.0585,-48.046726 -0.0737,-0.1057 -2.92272,-1.40364 -6.33126,-2.88383 l -6.19737,-2.69127 -0.0911,16.04765 -0.0911,16.047676 -3.78222,-5.33971 -3.78222,-5.339726 v -16.32027 c 0,-8.97617 0.0476,-16.32028 0.1061,-16.32028 0.0834,0 25.90089,11.23966 27.55699,11.99701 l 0.41287,0.18892 -0.0483,28.948096 -0.0483,28.94813 -0.43552,0.97134 c -0.52549,1.17201 -1.72617,2.28989 -2.88803,2.68888 -0.56264,0.1933 -1.45257,0.28485 -2.67845,0.27511 l -1.83586,-0.0147 -10.01395,-6.18581 -10.01401,-6.185817 -10.178695,-14.053133 c -5.598303,-7.72922 -10.295078,-14.218456 -10.437301,-14.420536 -0.223751,-0.31796 -0.253646,2.786216 -0.22215,23.034566 l 0.03657,23.4019 6.274946,2.72959 c 3.451211,1.50122 6.34255,2.72953 6.42521,2.72953 0.0826,0 0.15027,-4.68152 0.15027,-10.40334 v -10.40333 l 3.79772,5.31201 3.79771,5.312 0.12585,10.69418 c 0.11971,10.17248 0.10997,10.69328 -0.1978,10.67457 -0.17797,-0.009 -6.5574,-2.72865 -14.17651,-6.03969 z"
       style="fill:#82bd39;fill-opacity:0.99327512;stroke-width:0.182987" />
  </g>
</svg>
